<?xml version="1.0" encoding="UTF-8"?>
<!DOCTYPE svg PUBLIC "-//W3C//DTD SVG 1.1//EN" "http://www.w3.org/Graphics/SVG/1.1/DTD/svg11.dtd">
<svg xmlns="http://www.w3.org/2000/svg" version="1.1" width="934px" height="316px" style="shape-rendering:geometricPrecision; text-rendering:geometricPrecision; image-rendering:optimizeQuality; fill-rule:evenodd; clip-rule:evenodd" xmlns:xlink="http://www.w3.org/1999/xlink">
<g><path style="opacity:0.953" fill="#fefffe" d="M 89.5,0.5 C 100.95,1.17407 112.283,2.5074 123.5,4.5C 124.696,5.55939 125.363,6.89273 125.5,8.5C 125.604,51.4617 125.437,94.4617 125,137.5C 124.022,151.433 120.022,164.433 113,176.5C 103.196,189.825 90.0293,197.658 73.5,200C 62.8333,200.667 52.1667,200.667 41.5,200C 10.3352,194.13 -3.16484,175.297 1,143.5C 2.41001,132.496 7.91001,124.329 17.5,119C 30.682,115.181 35.8487,120.014 33,133.5C 29.5202,140.655 24.8535,146.989 19,152.5C 14.1532,168.969 19.9866,179.802 36.5,185C 66.9102,189.876 87.0769,177.709 97,148.5C 98.1946,144.249 98.6946,139.915 98.5,135.5C 77.5444,135.261 63.3777,125.261 56,105.5C 48.0414,71.3262 54.3748,39.9928 75,11.5C 78.9507,6.46568 83.7841,2.79902 89.5,0.5 Z M 87.5,26.5 C 90.5184,26.3354 93.5184,26.502 96.5,27C 98.0488,28.214 99.2155,29.714 100,31.5C 98.6229,59.4207 98.1229,87.4207 98.5,115.5C 91.1827,117.328 85.016,115.328 80,109.5C 72.6862,94.6722 70.0195,79.0056 72,62.5C 72.6426,52.2618 75.3092,42.5951 80,33.5C 82.3959,30.9334 84.8959,28.6 87.5,26.5 Z"/></g>
<g><path style="opacity:0.95" fill="#fefffe" d="M 547.5,315.5 C 541.167,315.5 534.833,315.5 528.5,315.5C 517.396,314.867 507.896,310.534 500,302.5C 495.889,294.632 494.555,286.299 496,277.5C 500.385,244.469 515.718,217.802 542,197.5C 543.506,190.567 543.839,183.567 543,176.5C 539.721,184.443 534.888,191.277 528.5,197C 526.275,198.131 523.942,198.964 521.5,199.5C 515.861,198.195 510.195,197.028 504.5,196C 494.75,192.05 488.584,184.883 486,174.5C 482.122,180.045 477.289,184.545 471.5,188C 460.346,191.172 451.513,188.005 445,178.5C 442.34,174.186 440.673,169.519 440,164.5C 436.862,176.283 431.029,186.45 422.5,195C 395.558,203.434 379.725,193.6 375,165.5C 371.664,177.157 365.498,186.99 356.5,195C 341.027,201.525 329.193,197.359 321,182.5C 316.46,173.008 313.794,163.008 313,152.5C 312.245,127.139 312.745,101.806 314.5,76.5C 314.167,75.1667 313.833,73.8333 313.5,72.5C 304.88,70.2284 296.214,68.0618 287.5,66C 283.874,63.7487 282.707,60.5821 284,56.5C 287.312,55.0237 290.812,54.1904 294.5,54C 301.414,53.814 308.247,53.314 315,52.5C 316,37.8333 317,23.1667 318,8.5C 318.101,5.56483 319.601,4.23149 322.5,4.5C 329.913,5.10289 336.913,7.10289 343.5,10.5C 343.833,12.6667 344.167,14.8333 344.5,17C 343.415,28.8528 342.581,40.6861 342,52.5C 342.5,53 343,53.5 343.5,54C 355.2,54.7423 366.867,55.7423 378.5,57C 383.841,59.2359 385.841,63.0692 384.5,68.5C 371.441,67.0361 358.441,67.5361 345.5,70C 343.598,70.1992 342.098,71.0325 341,72.5C 338.985,100.803 338.319,129.137 339,157.5C 339.049,164.802 341.216,171.302 345.5,177C 349.106,178.482 352.439,177.816 355.5,175C 357.792,171.584 359.959,168.084 362,164.5C 365.934,154.096 368.934,143.429 371,132.5C 371.689,131.643 372.522,130.977 373.5,130.5C 374.546,111.433 378.713,93.0999 386,75.5C 393.653,60.1661 405.82,54.6661 422.5,59C 428.084,62.3075 434.084,64.6408 440.5,66C 449.123,70.0699 453.623,76.9032 454,86.5C 454.333,94.1667 454.667,101.833 455,109.5C 459.962,110.63 463.129,113.63 464.5,118.5C 458.489,135.326 457.989,152.326 463,169.5C 467.088,177.137 471.754,177.471 477,170.5C 479.274,166.286 481.274,161.953 483,157.5C 482.588,137.313 484.255,117.313 488,97.5C 490.385,83.8921 496.552,72.3921 506.5,63C 510.311,60.5109 514.478,59.0109 519,58.5C 528.082,62.8605 537.582,66.0272 547.5,68C 558.731,72.2901 564.064,80.4567 563.5,92.5C 562.777,99.1638 562.611,105.83 563,112.5C 565.943,114.375 569.11,115.875 572.5,117C 573.081,117.893 573.415,118.893 573.5,120C 570.843,125.121 569.343,130.621 569,136.5C 567.611,154.168 567.444,171.835 568.5,189.5C 573.711,189.016 578.378,190.349 582.5,193.5C 583.746,198.952 581.412,201.952 575.5,202.5C 573.218,201.777 570.884,201.443 568.5,201.5C 568.58,222.427 568.413,243.427 568,264.5C 568.19,279.218 565.19,293.218 559,306.5C 555.842,310.507 552.008,313.507 547.5,315.5 Z M 528.5,79.5 C 536.703,80.5339 541.536,85.2006 543,93.5C 544.162,98.1253 544.496,102.792 544,107.5C 542.926,111.964 541.593,116.297 540,120.5C 540.355,139.074 536.022,156.407 527,172.5C 525.167,175 523,177.167 520.5,179C 512.785,182.313 507.952,179.813 506,171.5C 502.235,149.695 502.901,128.029 508,106.5C 510.058,97.2123 514.558,89.379 521.5,83C 523.925,81.7874 526.259,80.6207 528.5,79.5 Z M 417.5,82.5 C 427.775,81.596 433.941,86.2626 436,96.5C 436.232,100.555 436.732,104.555 437.5,108.5C 435.808,110.359 434.308,112.359 433,114.5C 431.667,125.831 430.333,137.164 429,148.5C 428.159,160.701 423.992,171.534 416.5,181C 412.356,183.798 408.022,184.465 403.5,183C 400.7,178.942 398.866,174.442 398,169.5C 393.929,144.224 396.263,119.557 405,95.5C 408.025,89.9769 412.191,85.6436 417.5,82.5 Z M 541.5,209.5 C 542.662,228.662 542.829,247.996 542,267.5C 541.528,279.267 537.361,289.433 529.5,298C 520.459,302.064 514.625,299.231 512,289.5C 510.263,258.541 520.097,231.875 541.5,209.5 Z"/></g>
<g><path style="opacity:0.949" fill="#fefffe" d="M 933.5,138.5 C 933.5,140.5 933.5,142.5 933.5,144.5C 931.011,158.789 925.844,172.122 918,184.5C 908.596,195.287 897.43,197.454 884.5,191C 879.916,187.407 876.416,182.907 874,177.5C 871.052,169.425 869.385,161.092 869,152.5C 868.635,140.766 868.968,129.099 870,117.5C 859.29,139.005 852.29,161.672 849,185.5C 830.768,192.218 821.101,185.885 820,166.5C 819.667,152.167 819.333,137.833 819,123.5C 814.6,134.097 811.6,145.097 810,156.5C 808.139,168.44 806.806,180.44 806,192.5C 805.097,193.701 803.931,194.535 802.5,195C 793.719,196.352 785.386,195.018 777.5,191C 775.156,184.414 773.989,177.581 774,170.5C 769.776,179.058 763.276,185.224 754.5,189C 744.718,190.694 736.885,187.527 731,179.5C 728.721,175.276 726.721,170.943 725,166.5C 721.846,176.312 717.013,185.145 710.5,193C 705.062,197.921 698.729,199.588 691.5,198C 681.548,198.273 673.715,194.44 668,186.5C 665.41,181.728 663.41,176.728 662,171.5C 658.631,179.071 654.131,185.904 648.5,192C 636.138,198.928 625.638,196.761 617,185.5C 609.643,170.039 606.143,153.705 606.5,136.5C 607.029,127.324 607.695,118.157 608.5,109C 608.47,106.576 608.137,104.243 607.5,102C 604.24,101.216 601.073,101.383 598,102.5C 595.818,115.1 593.818,127.767 592,140.5C 591.113,148.507 588.279,155.673 583.5,162C 580.975,162.896 578.808,162.396 577,160.5C 578.648,150.265 579.982,139.931 581,129.5C 581.773,110.908 581.273,92.4082 579.5,74C 584.052,67.2564 590.385,64.5898 598.5,66C 599.701,66.9025 600.535,68.0692 601,69.5C 601.796,73.7548 601.629,77.9215 600.5,82C 601.167,83 601.833,84 602.5,85C 613.395,85.3549 624.062,87.0216 634.5,90C 638.126,92.2513 639.293,95.4179 638,99.5C 629.571,123.285 627.238,147.619 631,172.5C 632.623,183.564 637.29,185.23 645,177.5C 651.668,164.162 656.335,150.162 659,135.5C 659.368,114.279 663.702,93.9453 672,74.5C 678.703,61.7318 689.203,56.2318 703.5,58C 712.849,61.6763 722.182,65.343 731.5,69C 735.709,72.9169 738.209,77.7502 739,83.5C 739.358,92.5155 739.858,101.515 740.5,110.5C 744.213,110.77 747.046,112.436 749,115.5C 748.5,121.187 747.5,126.854 746,132.5C 745.333,141.5 745.333,150.5 746,159.5C 745.874,166.932 749.041,172.266 755.5,175.5C 758.433,174.07 760.933,172.07 763,169.5C 767.134,161.091 770.467,152.424 773,143.5C 774.163,120.445 774.83,97.4451 775,74.5C 777.841,72.4963 781.007,71.9963 784.5,73C 789.329,73.5406 793.996,74.7072 798.5,76.5C 799.333,98.8259 799.833,121.159 800,143.5C 803.278,126.66 809.111,110.827 817.5,96C 824.473,92.7281 831.473,92.7281 838.5,96C 840,96.8333 841.167,98 842,99.5C 842.333,117.5 842.667,135.5 843,153.5C 850.857,130.257 859.691,107.424 869.5,85C 882.763,82.0433 893.263,86.2099 901,97.5C 901.505,101.514 900.505,105.181 898,108.5C 893.9,126.668 892.9,145.001 895,163.5C 897.973,180.077 904.64,181.743 915,168.5C 919.261,158.12 922.595,147.454 925,136.5C 928.758,133.59 931.592,134.257 933.5,138.5 Z M 702.5,82.5 C 710.924,80.6279 716.757,83.6279 720,91.5C 721.284,96.0879 722.118,100.755 722.5,105.5C 721.365,109.218 719.865,112.884 718,116.5C 716.934,134.097 714.268,151.431 710,168.5C 707.189,176.981 701.522,182.314 693,184.5C 687.601,182.395 684.601,178.395 684,172.5C 679.254,146.611 681.254,121.278 690,96.5C 692.636,90.3695 696.803,85.7028 702.5,82.5 Z"/></g>
<g><path style="opacity:0.946" fill="#fefffe" d="M 149.5,71.5 C 156.496,71.7849 162.663,74.1183 168,78.5C 168.333,97.5 168.667,116.5 169,135.5C 173.314,122.538 178.981,110.205 186,98.5C 192.32,90.099 199.32,89.4323 207,96.5C 209.133,100.232 210.466,104.232 211,108.5C 210.667,125.493 210.667,142.493 211,159.5C 213.754,170.352 218.754,171.352 226,162.5C 230.212,154.322 232.879,145.655 234,136.5C 234.791,134.396 236.291,133.063 238.5,132.5C 225.85,110.281 231.184,93.7813 254.5,83C 267.242,77.2098 280.575,74.8765 294.5,76C 300.706,76.7075 304.04,80.2075 304.5,86.5C 303.685,93.8043 300.685,99.971 295.5,105C 290.273,107.685 285.939,106.685 282.5,102C 275.353,98.9048 268.853,100.071 263,105.5C 258.137,112.406 257.803,119.406 262,126.5C 270.911,135.415 280.411,143.582 290.5,151C 295.415,155.244 299.581,160.077 303,165.5C 305.614,175.76 301.781,182.593 291.5,186C 278.017,189.818 264.35,190.485 250.5,188C 241.981,186.585 235.314,182.418 230.5,175.5C 219.306,185.892 207.472,186.892 195,178.5C 192.34,174.186 190.673,169.519 190,164.5C 189.41,158.507 188.91,152.507 188.5,146.5C 189.333,139.508 189.5,132.508 189,125.5C 185.191,132.121 182.191,139.121 180,146.5C 176.868,159.828 173.868,173.162 171,186.5C 163.595,188.972 156.095,189.138 148.5,187C 146.383,185.269 144.883,183.102 144,180.5C 142.939,173.552 142.439,166.552 142.5,159.5C 143.429,130.462 144.762,101.462 146.5,72.5C 147.791,72.7373 148.791,72.404 149.5,71.5 Z M 243.5,138.5 C 254.061,147.039 264.561,155.706 275,164.5C 280.894,173.477 278.394,178.477 267.5,179.5C 265.077,179.406 262.744,178.906 260.5,178C 252.961,172.96 245.294,168.127 237.5,163.5C 240.914,155.51 242.914,147.177 243.5,138.5 Z"/></g>
</svg>
